# xmcd
#
# Track frame offsets:
#	150
#	12888
#	25936
#	37013
#	47510
#	60023
#	76932
#	90370
#	104025
#	118219
#	130793
#	144154
#	157265
#	173124
#	183188
#	196876
#	207299
#	220390
#	232098
#	245001
#	256088
#	274925
#	289899
#
# Disc length: 4041 seconds
#
# Revision: 0
# Processed by: cddbd v1.4b41PL1 Copyright (c) Steve Scherf et al.
# Submitted via: audiograbber 1.80
#
DISCID=460fc717
DTITLE=dolly parton - coat of many colors
DYEAR=1900
DGENRE=
TTITLE0=various
TTITLE1=various
TTITLE2=various
TTITLE3=varioous
TTITLE4=various
TTITLE5=various
TTITLE6=various
TTITLE7=various
TTITLE8=dolly parton
TTITLE9=various
TTITLE10=various
TTITLE11=various
TTITLE12=various
TTITLE13=various
TTITLE14=various
TTITLE15=various
TTITLE16=various
TTITLE17=various
TTITLE18=various
TTITLE19=various
TTITLE20=various
TTITLE21=various
TTITLE22=various
EXTD=
EXTT0=
EXTT1=
EXTT2=
EXTT3=
EXTT4=
EXTT5=
EXTT6=
EXTT7=
EXTT8=
EXTT9=
EXTT10=
EXTT11=
EXTT12=
EXTT13=
EXTT14=
EXTT15=
EXTT16=
EXTT17=
EXTT18=
EXTT19=
EXTT20=
EXTT21=
EXTT22=
PLAYORDER=
